<svg data-v-423bf9ae="" xmlns="http://www.w3.org/2000/svg" viewBox="0 0 542 165" class="iconLeft"><!----><!----><!----><g data-v-423bf9ae="" id="b07b4a81-7bdd-49ef-8a5f-e268e3142f1d" fill="#342103" transform="matrix(4.535147549208299,0,0,4.535147549208299,184.75102414667796,28.883446342666858)"><path d="M7.31 7.74L7.46 7.90L7.46 7.90Q6.92 8.61 6.10 9.07L6.10 9.07L6.10 9.07Q5.29 9.52 4.42 9.52L4.42 9.52L4.42 9.52Q4.14 9.87 4.02 10.18L4.02 10.18L4.02 10.18Q3.89 10.49 3.89 10.91L3.89 10.91L3.89 15.47L3.89 15.47Q3.89 16.56 3.56 17.19L3.56 17.19L3.56 17.19Q3.22 17.81 2.48 18.38L2.48 18.38L2.18 18.10L2.18 18.10Q2.39 17.86 2.50 17.49L2.50 17.49L2.50 17.49Q2.60 17.11 2.60 16.73L2.60 16.73L2.60 11.72L2.60 11.72Q2.60 11.09 2.94 10.51L2.94 10.51L2.94 10.51Q3.28 9.94 3.79 9.52L3.79 9.52L1.86 9.51L1.86 9.51Q1.33 9.51 0.95 9.70L0.95 9.70L0.95 9.70Q0.57 9.88 0.21 10.29L0.21 10.29L-0.06 10.08L-0.06 10.08Q0.64 9.23 1.42 8.76L1.42 8.76L1.42 8.76Q2.20 8.30 3.01 8.30L3.01 8.30L4.17 8.30L4.17 8.30Q5.18 8.30 6.05 8.20L6.05 8.20L6.05 8.20Q6.92 8.09 7.31 7.74L7.31 7.74ZM9.24 5.15L9.24 15.11L9.30 15.11L9.30 15.11Q9.44 14.34 9.79 13.38L9.79 13.38L9.79 13.38Q10.15 12.42 10.75 11.69L10.75 11.69L10.75 11.69Q11.35 10.96 12.17 10.96L12.17 10.96L12.17 10.96Q12.60 10.96 12.80 11.28L12.80 11.28L12.80 11.28Q13.01 11.59 13.04 11.98L13.04 11.98L13.04 11.98Q13.08 12.38 13.08 13.02L13.08 13.02L13.08 16.91L13.08 16.91Q13.08 17.08 13.18 17.23L13.18 17.23L13.18 17.23Q13.29 17.39 13.51 17.39L13.51 17.39L13.51 17.39Q13.87 17.39 14.25 16.84L14.25 16.84L14.42 17.05L14.42 17.05Q14.22 17.51 13.80 17.84L13.80 17.84L13.80 17.84Q13.37 18.16 12.94 18.16L12.94 18.16L12.94 18.16Q11.84 18.16 11.84 16.74L11.84 16.74L11.84 13.03L11.84 13.03Q11.84 12.85 11.77 12.70L11.77 12.70L11.77 12.70Q11.69 12.54 11.51 12.54L11.51 12.54L11.51 12.54Q10.79 12.54 10.28 13.66L10.28 13.66L10.28 13.66Q9.76 14.77 9.48 16.11L9.48 16.11L9.48 16.11Q9.20 17.44 9.20 17.92L9.20 17.92L7.95 18.28L7.95 5.68L9.24 5.15ZM19.29 10.96L19.29 10.96Q20.05 10.96 20.55 11.37L20.55 11.37L20.55 11.37Q21.06 11.77 21.06 12.57L21.06 12.57L21.06 12.57Q21.06 13.22 20.36 14.01L20.36 14.01L20.36 14.01Q19.67 14.80 18.74 15.46L18.74 15.46L18.74 15.46Q17.81 16.11 17.15 16.38L17.15 16.38L17.15 16.38Q17.50 16.94 17.95 17.16L17.95 17.16L17.95 17.16Q18.40 17.37 19.00 17.37L19.00 17.37L19.00 17.37Q19.67 17.37 20.34 17.03L20.34 17.03L20.34 17.03Q21 16.69 21.43 16.14L21.43 16.14L21.60 16.44L21.60 16.44Q20.92 17.32 20.15 17.79L20.15 17.79L20.15 17.79Q19.38 18.26 18.26 18.26L18.26 18.26L18.26 18.26Q17.40 18.26 16.73 17.84L16.73 17.84L16.73 17.84Q16.06 17.42 15.68 16.71L15.68 16.71L15.68 16.71Q15.30 16.00 15.30 15.18L15.30 15.18L15.30 15.18Q15.30 14.14 15.86 13.16L15.86 13.16L15.86 13.16Q16.42 12.18 17.35 11.57L17.35 11.57L17.35 11.57Q18.27 10.96 19.29 10.96L19.29 10.96ZM18.56 11.84L18.56 11.84Q17.95 11.84 17.46 12.24L17.46 12.24L17.46 12.24Q16.98 12.63 16.71 13.24L16.71 13.24L16.71 13.24Q16.44 13.86 16.44 14.52L16.44 14.52L16.44 14.52Q16.44 15.39 16.84 16.00L16.84 16.00L16.84 16.00Q17.43 15.74 18.12 15.20L18.12 15.20L18.12 15.20Q18.80 14.66 19.28 14.03L19.28 14.03L19.28 14.03Q19.75 13.40 19.75 12.88L19.75 12.88L19.75 12.88Q19.75 11.84 18.56 11.84L18.56 11.84ZM32.13 7.74L32.28 7.90L32.28 7.90Q31.74 8.61 30.93 9.07L30.93 9.07L30.93 9.07Q30.11 9.52 29.25 9.52L29.25 9.52L29.25 9.52Q28.97 9.87 28.84 10.18L28.84 10.18L28.84 10.18Q28.71 10.49 28.71 10.91L28.71 10.91L28.71 15.47L28.71 15.47Q28.71 16.56 28.38 17.19L28.38 17.19L28.38 17.19Q28.04 17.81 27.30 18.38L27.30 18.38L27.01 18.10L27.01 18.10Q27.22 17.86 27.32 17.49L27.32 17.49L27.32 17.49Q27.43 17.11 27.43 16.73L27.43 16.73L27.43 11.72L27.43 11.72Q27.43 11.09 27.76 10.51L27.76 10.51L27.76 10.51Q28.10 9.94 28.62 9.52L28.62 9.52L26.68 9.51L26.68 9.51Q26.15 9.51 25.77 9.70L25.77 9.70L25.77 9.70Q25.40 9.88 25.03 10.29L25.03 10.29L24.77 10.08L24.77 10.08Q25.47 9.23 26.24 8.76L26.24 8.76L26.24 8.76Q27.02 8.30 27.83 8.30L27.83 8.30L28.99 8.30L28.99 8.30Q30.00 8.30 30.87 8.20L30.87 8.20L30.87 8.20Q31.74 8.09 32.13 7.74L32.13 7.74ZM34.80 11.09L34.80 11.09Q35.49 11.09 36.10 11.38L36.10 11.38L36.10 11.38Q36.71 11.68 36.99 12.28L36.99 12.28L35.98 12.82L35.98 12.82Q35.76 12.50 35.36 12.24L35.36 12.24L35.36 12.24Q34.97 11.98 34.52 11.98L34.52 11.98L34.52 11.98Q33.81 11.98 33.28 12.36L33.28 12.36L33.28 12.36Q32.75 12.73 32.47 13.36L32.47 13.36L32.47 13.36Q32.19 13.99 32.19 14.76L32.19 14.76L32.19 14.76Q32.19 15.86 32.56 16.55L32.56 16.55L32.56 16.55Q32.94 17.25 33.75 17.25L33.75 17.25L33.75 17.25Q34.90 17.25 35.34 16.32L35.34 16.32L35.34 16.32Q35.77 15.40 35.77 14.31L35.77 14.31L35.77 13.68L37.00 13.16L37.00 16.84L37.00 16.84Q37.00 17.02 37.10 17.19L37.10 17.19L37.10 17.19Q37.20 17.36 37.39 17.36L37.39 17.36L37.39 17.36Q37.80 17.36 38.14 16.80L38.14 16.80L38.35 17.02L38.35 17.02Q38.18 17.50 37.76 17.83L37.76 17.83L37.76 17.83Q37.34 18.16 36.92 18.16L36.92 18.16L36.92 18.16Q36.32 18.16 36.03 17.71L36.03 17.71L36.03 17.71Q35.74 17.26 35.74 16.52L35.74 16.52L35.71 16.52L35.71 16.52Q35.36 17.26 34.77 17.76L34.77 17.76L34.77 17.76Q34.17 18.26 33.52 18.26L33.52 18.26L33.52 18.26Q32.33 18.26 31.72 17.44L31.72 17.44L31.72 17.44Q31.11 16.62 31.11 15.25L31.11 15.25L31.11 15.25Q31.11 14.15 31.60 13.20L31.60 13.20L31.60 13.20Q32.09 12.24 32.94 11.66L32.94 11.66L32.94 11.66Q33.78 11.09 34.80 11.09L34.80 11.09ZM41.20 10.51L41.20 10.51Q41.68 10.51 41.90 10.68L41.90 10.68L41.90 10.68Q42.11 10.85 42.11 11.20L42.11 11.20L42.11 11.20Q42.11 11.58 41.97 11.87L41.97 11.87L41.97 11.87Q41.82 12.17 41.65 12.38L41.65 12.38L41.65 12.38Q41.48 12.59 41.43 12.67L41.43 12.67L41.43 12.67Q41.59 12.95 42.06 13.33L42.06 13.33L42.06 13.33Q42.43 13.65 42.66 13.90L42.66 13.90L42.66 13.90Q42.88 14.15 43.04 14.58L43.04 14.58L43.04 14.58Q43.20 15.01 43.20 15.62L43.20 15.62L43.20 15.62Q43.20 16.35 42.88 16.95L42.88 16.95L42.88 16.95Q42.55 17.56 41.97 17.91L41.97 17.91L41.97 17.91Q41.38 18.26 40.66 18.26L40.66 18.26L40.66 18.26Q40.21 18.26 39.68 18.07L39.68 18.07L39.68 18.07Q39.14 17.88 38.89 17.53L38.89 17.53L39.83 16.28L39.83 16.28Q40.17 16.72 40.54 17.02L40.54 17.02L40.54 17.02Q40.91 17.33 41.34 17.33L41.34 17.33L41.34 17.33Q41.94 17.33 42.37 16.93L42.37 16.93L42.37 16.93Q42.80 16.53 42.80 15.97L42.80 15.97L42.80 15.97Q42.80 15.53 42.43 15.09L42.43 15.09L42.43 15.09Q42.06 14.64 41.38 14.04L41.38 14.04L41.38 14.04Q41.30 13.97 41.06 13.76L41.06 13.76L41.06 13.76Q40.82 13.54 40.71 13.40L40.71 13.40L39.73 14.84L39.28 14.55L40.40 12.99L40.40 12.99Q40.21 12.45 40.21 11.91L40.21 11.91L40.21 11.91Q40.21 11.31 40.47 10.91L40.47 10.91L40.47 10.91Q40.74 10.51 41.20 10.51L41.20 10.51ZM41.20 11.06L41.20 11.06Q41.02 11.06 40.97 11.16L40.97 11.16L40.97 11.16Q40.92 11.26 40.92 11.45L40.92 11.45L40.92 11.45Q40.92 11.70 40.99 11.89L40.99 11.89L40.99 11.89Q41.06 12.07 41.09 12.14L41.09 12.14L41.09 12.14Q41.24 12.04 41.38 11.78L41.38 11.78L41.38 11.78Q41.51 11.52 41.51 11.34L41.51 11.34L41.51 11.34Q41.51 11.21 41.43 11.14L41.43 11.14L41.43 11.14Q41.36 11.06 41.20 11.06L41.20 11.06ZM46.48 7.36L46.48 11.09L48.43 11.09L48.01 11.98L46.48 11.98L46.48 16.91L46.48 16.91Q46.48 17.12 46.61 17.26L46.61 17.26L46.61 17.26Q46.73 17.39 46.94 17.39L46.94 17.39L46.94 17.39Q47.24 17.39 47.75 16.84L47.75 16.84L47.95 17.05L47.95 17.05Q47.68 17.58 47.31 17.84L47.31 17.84L47.31 17.84Q46.94 18.10 46.61 18.17L46.61 18.17L46.61 18.17Q46.28 18.23 46.28 18.17L46.28 18.17L46.28 18.17Q46.30 18.17 46.33 18.17L46.33 18.17L46.33 18.17Q46.35 18.16 46.41 18.16L46.41 18.16L46.41 18.16Q45.18 18.16 45.18 16.74L45.18 16.74L45.18 11.98L44.13 11.98L44.56 11.09L45.18 11.09L45.18 7.87L46.48 7.36ZM53.19 10.96L53.19 10.96Q53.94 10.96 54.45 11.37L54.45 11.37L54.45 11.37Q54.95 11.77 54.95 12.57L54.95 12.57L54.95 12.57Q54.95 13.22 54.26 14.01L54.26 14.01L54.26 14.01Q53.56 14.80 52.63 15.46L52.63 15.46L52.63 15.46Q51.70 16.11 51.04 16.38L51.04 16.38L51.04 16.38Q51.39 16.94 51.84 17.16L51.84 17.16L51.84 17.16Q52.29 17.37 52.89 17.37L52.89 17.37L52.89 17.37Q53.56 17.37 54.23 17.03L54.23 17.03L54.23 17.03Q54.89 16.69 55.33 16.14L55.33 16.14L55.50 16.44L55.50 16.44Q54.81 17.32 54.04 17.79L54.04 17.79L54.04 17.79Q53.27 18.26 52.15 18.26L52.15 18.26L52.15 18.26Q51.30 18.26 50.62 17.84L50.62 17.84L50.62 17.84Q49.95 17.42 49.57 16.71L49.57 16.71L49.57 16.71Q49.20 16.00 49.20 15.18L49.20 15.18L49.20 15.18Q49.20 14.14 49.76 13.16L49.76 13.16L49.76 13.16Q50.32 12.18 51.24 11.57L51.24 11.57L51.24 11.57Q52.16 10.96 53.19 10.96L53.19 10.96ZM52.46 11.84L52.46 11.84Q51.84 11.84 51.36 12.24L51.36 12.24L51.36 12.24Q50.88 12.63 50.60 13.24L50.60 13.24L50.60 13.24Q50.33 13.86 50.33 14.52L50.33 14.52L50.33 14.52Q50.33 15.39 50.74 16.00L50.74 16.00L50.74 16.00Q51.32 15.74 52.01 15.20L52.01 15.20L52.01 15.20Q52.70 14.66 53.17 14.03L53.17 14.03L53.17 14.03Q53.65 13.40 53.65 12.88L53.65 12.88L53.65 12.88Q53.65 11.84 52.46 11.84L52.46 11.84ZM64.32 8.08L64.32 8.08Q65.65 8.08 66.49 8.80L66.49 8.80L66.49 8.80Q67.34 9.52 67.34 10.96L67.34 10.96L67.34 10.96Q67.34 12.11 66.57 13.10L66.57 13.10L66.57 13.10Q65.80 14.08 64.60 14.67L64.60 14.67L64.60 14.67Q63.41 15.26 62.20 15.26L62.20 15.26L62.20 15.26Q62.08 15.26 62.05 15.23L62.05 15.23L62.12 14.85L62.12 14.85Q63.06 14.76 63.95 14.27L63.95 14.27L63.95 14.27Q64.85 13.78 65.42 12.99L65.42 12.99L65.42 12.99Q65.98 12.19 65.98 11.23L65.98 11.23L65.98 11.23Q65.98 10.18 65.35 9.55L65.35 9.55L65.35 9.55Q64.71 8.92 63.46 8.92L63.46 8.92L63.46 8.92Q62.50 8.92 61.43 9.37L61.43 9.37L61.43 9.37Q60.35 9.83 59.56 10.56L59.56 10.56L59.29 10.26L59.29 10.26Q60.31 9.31 61.68 8.69L61.68 8.69L61.68 8.69Q63.04 8.08 64.32 8.08L64.32 8.08ZM61.47 10.11L61.47 17.78L60.19 18.27L60.19 10.61L61.47 10.11ZM70.29 10.96L70.55 11.26L70.55 11.26Q69.50 11.93 68.89 12.75L68.89 12.75L68.89 12.75Q68.29 13.58 68.29 14.70L68.29 14.70L68.29 14.70Q68.29 15.33 68.56 15.97L68.56 15.97L68.56 15.97Q68.82 16.60 69.36 17.02L69.36 17.02L69.36 17.02Q69.89 17.44 70.63 17.44L70.63 17.44L70.63 17.44Q71.23 17.44 71.70 17.16L71.70 17.16L71.70 17.16Q72.17 16.88 72.43 16.41L72.43 16.41L72.43 16.41Q72.69 15.93 72.69 15.36L72.69 15.36L72.69 15.36Q72.69 14.70 72.29 14.01L72.29 14.01L72.29 14.01Q71.89 13.33 71.25 12.85L71.25 12.85L71.25 12.85Q70.60 12.38 69.93 12.32L69.93 12.32L69.93 12.32Q70.21 12.04 70.60 11.73L70.60 11.73L70.60 11.73Q70.99 11.42 71.40 11.13L71.40 11.13L71.40 11.13Q72.37 11.45 72.93 12.36L72.93 12.36L72.93 12.36Q73.49 13.26 73.49 14.36L73.49 14.36L73.49 14.36Q73.49 15.34 73.09 16.25L73.09 16.25L73.09 16.25Q72.69 17.15 71.92 17.72L71.92 17.72L71.92 17.72Q71.15 18.28 70.10 18.28L70.10 18.28L70.10 18.28Q69.26 18.28 68.55 17.87L68.55 17.87L68.55 17.87Q67.84 17.46 67.44 16.74L67.44 16.74L67.44 16.74Q67.03 16.03 67.03 15.16L67.03 15.16L67.03 15.16Q67.03 13.64 67.94 12.52L67.94 12.52L67.94 12.52Q68.84 11.40 70.29 10.96L70.29 10.96ZM76.80 7.36L76.80 11.09L78.75 11.09L78.33 11.98L76.80 11.98L76.80 16.91L76.80 16.91Q76.80 17.12 76.93 17.26L76.93 17.26L76.93 17.26Q77.06 17.39 77.27 17.39L77.27 17.39L77.27 17.39Q77.56 17.39 78.08 16.84L78.08 16.84L78.27 17.05L78.27 17.05Q78.01 17.58 77.64 17.84L77.64 17.84L77.64 17.84Q77.27 18.10 76.94 18.17L76.94 18.17L76.94 18.17Q76.61 18.23 76.61 18.17L76.61 18.17L76.61 18.17Q76.62 18.17 76.65 18.17L76.65 18.17L76.65 18.17Q76.68 18.16 76.73 18.16L76.73 18.16L76.73 18.16Q75.50 18.16 75.50 16.74L75.50 16.74L75.50 11.98L74.45 11.98L74.89 11.09L75.50 11.09L75.50 7.87L76.80 7.36Z"></path></g><defs data-v-423bf9ae=""><linearGradient data-v-423bf9ae="" gradientTransform="rotate(25)" id="704c7806-4e43-41b8-ba07-0238440d6cb0" x1="0%" y1="0%" x2="100%" y2="0%"><stop data-v-423bf9ae="" offset="0%" style="stop-color: rgb(229, 101, 0); stop-opacity: 1;"></stop><stop data-v-423bf9ae="" offset="100%" style="stop-color: rgb(235, 197, 29); stop-opacity: 1;"></stop></linearGradient></defs><g data-v-423bf9ae="" id="33c3efb8-5e8c-4dbd-adeb-17f89e9c5de9" transform="matrix(1.3518666585286458,0,0,1.3518666585286458,-11.288732401529955,-11.288732401529955)" stroke="none" fill="url(#704c7806-4e43-41b8-ba07-0238440d6cb0)"><path d="M69.5 8.666c-33.544 0-60.834 27.29-60.834 60.834s27.29 60.834 60.834 60.834 60.834-27.29 60.834-60.834S103.044 8.666 69.5 8.666zm0 115.668c-30.235 0-54.834-24.599-54.834-54.834S39.265 14.666 69.5 14.666s54.834 24.599 54.834 54.834-24.599 54.834-54.834 54.834z"></path><path d="M53.325 54.383h5.552c6.664-8.097-6.663-16.194 0-24.291h-5.552c-6.664 8.096 6.664 16.194 0 24.291zM66.752 54.383h5.553c6.663-8.097-6.664-16.194 0-24.291h-5.553c-6.664 8.096 6.664 16.194 0 24.291zM80.179 54.383h5.553c6.664-8.097-6.664-16.194 0-24.291h-5.553c-6.663 8.096 6.664 16.194 0 24.291zM102.786 77.989l-5.307 1.369v-4.76c3.218-1.028 5.556-4.045 5.556-7.6 0-4.4-3.579-7.979-7.979-7.979H44.001c-4.4 0-7.979 3.58-7.979 7.979 0 3.555 2.338 6.571 5.556 7.6v4.637l-4.828-1.246a4 4 0 1 0-1.999 7.746l6.827 1.762v9.479c0 5.115 4.161 9.277 9.276 9.277h37.35c5.115 0 9.276-4.162 9.276-9.277V87.62l7.305-1.885a3.999 3.999 0 1 0-1.999-7.746zM44.001 65.02h51.056c1.091 0 1.979.888 1.979 1.979a1.982 1.982 0 0 1-1.979 1.979H44.001a1.982 1.982 0 0 1-1.979-1.979 1.98 1.98 0 0 1 1.979-1.979zm44.202 35.234h-37.35a3.28 3.28 0 0 1-3.276-3.277V74.978h43.902v21.999a3.28 3.28 0 0 1-3.276 3.277z"></path></g><!----></svg>